<svg xmlns="http://www.w3.org/2000/svg" viewBox="0 0 200 160" fill="none">
  <defs>
    <linearGradient id="sky" x1="0" y1="0" x2="0" y2="160" gradientUnits="userSpaceOnUse">
      <stop stop-color="#E8F4FC" stop-opacity="0.3"/>
      <stop offset="1" stop-color="#FFE8F0" stop-opacity="0.5"/>
    </linearGradient>
  </defs>
  <rect width="200" height="160" fill="url(#sky)"/>
  <!-- distant mountains -->
  <path d="M0 100 L40 70 L70 90 L100 55 L130 85 L160 60 L200 95 L200 160 L0 160 Z" fill="#B8D4E8" opacity="0.5"/>
  <path d="M0 120 L50 95 L90 115 L120 85 L160 110 L200 90 L200 160 L0 160 Z" fill="#9BC4E0" opacity="0.4"/>
  <!-- Fuji silhouette center -->
  <path d="M100 50 L70 120 L130 120 Z" fill="#7EB8E8" opacity="0.55"/>
  <path d="M100 50 L88 75 L112 75 Z" fill="#fff" opacity="0.7"/>
  <!-- Torii -->
  <rect x="85" y="95" width="6" height="40" rx="1" fill="#E74C3C"/>
  <rect x="109" y="95" width="6" height="40" rx="1" fill="#E74C3C"/>
  <rect x="78" y="88" width="44" height="7" rx="1.5" fill="#C0392B"/>
  <rect x="82" y="80" width="36" height="5" rx="1" fill="#E74C3C"/>
  <!-- sakura dots -->
  <circle cx="30" cy="50" r="4" fill="#FFB7C5" opacity="0.7"/>
  <circle cx="45" cy="40" r="3" fill="#FF8FAB" opacity="0.6"/>
  <circle cx="165" cy="45" r="4" fill="#FFB7C5" opacity="0.65"/>
  <circle cx="175" cy="60" r="3" fill="#FF8FAB" opacity="0.5"/>
  <circle cx="20" cy="70" r="2.5" fill="#FFD4DC" opacity="0.7"/>
</svg>
